<svg xmlns="http://www.w3.org/2000/svg" xmlns:xlink="http://www.w3.org/1999/xlink" width="500" zoomAndPan="magnify" viewBox="0 0 375 374.999991" height="500" preserveAspectRatio="xMidYMid meet" version="1.0"><defs><g/><clipPath id="ll-f917bb4164"><path d="M 2.554688 3 L 178.5625 3 L 178.5625 79.726562 L 2.554688 79.726562 Z M 2.554688 3 " clip-rule="nonzero"/></clipPath><clipPath id="ll-fd8237424b"><path d="M 62.785156 57.171875 L 118.214844 57.171875 L 118.214844 112.605469 L 62.785156 112.605469 Z M 62.785156 57.171875 " clip-rule="nonzero"/></clipPath><clipPath id="ll-0e2928a2e8"><path d="M 90.5 57.171875 C 75.191406 57.171875 62.785156 69.582031 62.785156 84.890625 C 62.785156 100.195312 75.191406 112.605469 90.5 112.605469 C 105.808594 112.605469 118.214844 100.195312 118.214844 84.890625 C 118.214844 69.582031 105.808594 57.171875 90.5 57.171875 Z M 90.5 57.171875 " clip-rule="nonzero"/></clipPath><clipPath id="ll-3ab6cc7c30"><path d="M 0.785156 0.171875 L 56.214844 0.171875 L 56.214844 55.605469 L 0.785156 55.605469 Z M 0.785156 0.171875 " clip-rule="nonzero"/></clipPath><clipPath id="ll-8fd2e111dc"><path d="M 28.5 0.171875 C 13.191406 0.171875 0.785156 12.582031 0.785156 27.890625 C 0.785156 43.195312 13.191406 55.605469 28.5 55.605469 C 43.808594 55.605469 56.214844 43.195312 56.214844 27.890625 C 56.214844 12.582031 43.808594 0.171875 28.5 0.171875 Z M 28.5 0.171875 " clip-rule="nonzero"/></clipPath><clipPath id="ll-e7ec2aec7e"><rect x="0" width="57" y="0" height="56"/></clipPath><clipPath id="ll-5f4e8d560f"><rect x="0" width="218" y="0" height="339"/></clipPath></defs><g transform="matrix(1, 0, 0, 1, 97, 36)"><g clip-path="url(#ll-5f4e8d560f)"><g clip-path="url(#ll-f917bb4164)"><path fill="#1A5FA8" d="M 90.496094 3.027344 C 41.902344 3.027344 2.5 42.433594 2.5 91.042969 C 2.5 139.632812 90.496094 267.015625 90.496094 267.015625 C 90.496094 267.015625 178.492188 139.632812 178.492188 91.042969 C 178.492188 42.433594 139.085938 3.027344 90.496094 3.027344 Z M 90.496094 132.703125 C 64.914062 132.703125 44.179688 111.992188 44.179688 86.386719 C 44.179688 60.828125 64.914062 40.09375 90.496094 40.09375 C 116.074219 40.09375 136.789062 60.828125 136.789062 86.386719 C 136.789062 111.992188 116.074219 132.703125 90.496094 132.703125 Z M 90.496094 132.703125 " fill-opacity="1" fill-rule="nonzero"/></g><g clip-path="url(#ll-fd8237424b)"><g clip-path="url(#ll-0e2928a2e8)"><g transform="matrix(1, 0, 0, 1, 62, 57)"><g clip-path="url(#ll-e7ec2aec7e)"><g clip-path="url(#ll-3ab6cc7c30)"><g clip-path="url(#ll-8fd2e111dc)"><path fill="#1A5FA8" d="M 0.785156 0.171875 L 56.214844 0.171875 L 56.214844 55.605469 L 0.785156 55.605469 Z M 0.785156 0.171875 " fill-opacity="1" fill-rule="nonzero"/></g></g></g></g></g></g><g fill="#1A5FA8" fill-opacity="1"><g transform="translate(6.800488, 284.599974)"><g><path d="M 63.421875 -66.171875 L -4.140625 -193.015625 L 39.984375 -193.015625 L 83.265625 -108.921875 L 84.65625 -108.921875 L 128.21875 -193.015625 L 172.328125 -193.015625 L 104.78125 -66.171875 L 104.78125 0 L 63.421875 0 Z M 63.421875 -66.171875 "/></g></g></g></g></g></svg>
